<svg width="26" height="26" viewBox="0 0 26 26" fill="none" xmlns="http://www.w3.org/2000/svg">
<path fill-rule="evenodd" clip-rule="evenodd" d="M13 0.5C6.0875 0.5 0.5 6.0875 0.5 13C0.5 19.9125 6.0875 25.5 13 25.5C19.9125 25.5 25.5 19.9125 25.5 13C25.5 6.0875 19.9125 0.5 13 0.5ZM13 23C7.4875 23 3 18.5125 3 13C3 7.4875 7.4875 3 13 3C18.5125 3 23 7.4875 23 13C23 18.5125 18.5125 23 13 23ZM13 11.2375L17.4875 6.75L19.25 8.5125L14.7625 13L19.25 17.4875L17.4875 19.25L13 14.7625L8.5125 19.25L6.75 17.4875L11.2375 13L6.75 8.5125L8.5125 6.75L13 11.2375Z" fill="#FF0000" fill-opacity="0.35"/>
</svg>
