<svg width="32" height="29" viewBox="0 0 32 29" fill="none" xmlns="http://www.w3.org/2000/svg">
<path fill-rule="evenodd" clip-rule="evenodd" d="M21.3497 18.1818H22.7322L31.4647 26.4329L28.8572 28.8917L20.1072 20.6571V19.3534L19.6347 18.8914C17.6397 20.5086 15.0497 21.4822 12.2322 21.4822C5.94971 21.4822 0.857208 16.6801 0.857208 10.7558C0.857208 4.8315 5.94971 0.0293579 12.2322 0.0293579C18.5147 0.0293579 23.6072 4.8315 23.6072 10.7558C23.6072 13.4126 22.5747 15.855 20.8597 17.7362L21.3497 18.1818ZM4.35721 10.7558C4.35721 14.8648 7.87471 18.1818 12.2322 18.1818C16.5897 18.1818 20.1072 14.8648 20.1072 10.7558C20.1072 6.64674 16.5897 3.3298 12.2322 3.3298C7.87471 3.3298 4.35721 6.64674 4.35721 10.7558Z" fill="#B04DFE"/>
</svg>
